<svg width="60" height="70" viewBox="0 0 60 70" fill="none" xmlns="http://www.w3.org/2000/svg">
<path d="M59.5494 37.3262L55.9488 36.0078L47.208 40.4028L54.5985 47.9478H57.8528L59.5494 37.3262Z" fill="#F43735"/>
<path d="M2.89474 36.0078L0 37.7198L1.69682 47.9478H4.95113L3.38636 36.0078H2.89474Z" fill="#F43735"/>
<path d="M35.9387 36.314L46.1634 64.6054L46.1894 64.6156V64.6054L52.9361 59.0524L54.5986 47.9478L55.9489 36.0078L35.9387 36.314Z" fill="#F43735"/>
<path d="M2.92578 36.2346L4.14727 45.248L6.61364 59.0524L12.5942 64.6054L27.1992 39.6486L2.92578 36.2346Z" fill="#F43735"/>
<path d="M46.9774 36.0463L11.7842 36.1969L12.5942 64.6055L12.571 65.7537L16.0169 69.5889H42.7431L46.1893 66.3799V64.6157L46.1632 64.6055L46.9774 36.0463Z" fill="#F43735"/>
<path d="M19.5918 2.27698C12.6071 4.51478 4.30237 9.92778 2.46313 22.9828C2.46313 22.9628 2.4823 22.9628 2.50147 22.9428C2.84647 22.6028 5.95147 19.8828 13.8098 19.7228C20.0148 19.5748 22.04 22.5184 22.675 24.0558L24.5174 21.455C24.5174 21.455 29.3881 14.6834 28.3615 9.34338C27.6799 5.79838 21.7967 3.33038 19.5918 2.27698Z" fill="#F43735"/>
<path d="M39.7695 2.61283L40.1298 2.35643C37.2188 1.39323 33.8221 0.791626 29.8331 0.722826C29.8331 0.722826 25.1266 0.503826 19.5918 2.27703C25.1179 4.91743 24.5174 21.455 24.5174 21.455L22.6749 24.0558C22.8971 24.5938 22.9523 24.9628 22.9523 24.9628L35.9473 24.7828C35.9473 24.7828 35.893 24.238 35.9435 23.4418L34.7024 21.455C34.7024 21.455 39.9391 17.1472 40.7943 12.1694C41.456 8.31863 37.3236 3.71363 39.7695 2.61283Z" fill="#F43735"/>
<path d="M40.1298 2.35645L39.7695 2.61285C37.5463 3.61325 36.2896 6.78164 35.5823 10.2418C34.5053 15.51 34.7024 21.455 34.7024 21.455L35.9434 23.4418C36.0923 21.1016 37.157 16.571 43.2497 17.1828C51.1847 18.0028 56.8389 25.7228 57.1839 26.2028C57.2031 26.2228 57.2031 26.2228 57.2031 26.2228C57.2031 26.2228 57.2031 26.2228 57.2031 26.2028V26.1828C57.1868 25.2134 56.6609 7.82644 40.1298 2.35645Z" fill="#F43735"/>
<path d="M57.2988 27.1628L57.0496 28.8628L54.8773 45.4824C51.8298 47.0422 49.6321 49.6628 48.4055 52.4028C46.2205 57.3028 45.3771 63.0228 45.3771 63.0228L42.3296 64.4428L37.0205 64.2628L34.1455 62.3628L22.9521 61.9428L20.6713 63.9628L16.5505 64.4028L13.618 61.3428C13.4263 57.2828 11.5863 54.6228 10.7238 52.2428C9.11379 47.8628 7.06295 46.1028 7.06295 46.1028L4.14962 45.2428L1.94546 29.0028L1.69629 27.1628C1.69629 27.1628 1.69629 26.8228 1.75379 26.2628C1.83046 25.5028 2.00296 24.3228 2.46296 22.9828C2.46296 22.9628 2.48212 22.9628 2.50129 22.9428C3.45962 20.0828 5.66379 16.5228 10.628 14.8028C19.6555 11.6628 23.0671 16.6828 24.5238 21.4628H34.7013C39.9721 4.58277 55.8038 17.8028 57.2029 26.1828V26.2028C57.2029 26.2228 57.2029 26.2228 57.2029 26.2228C57.2604 26.5428 57.2988 26.8628 57.2988 27.1628Z" fill="#FFDD4D"/>
<path d="M9.28809 34.819C9.28809 34.819 18.4576 36.4866 22.9579 36.314L20.5391 39.6486C20.5391 39.6486 14.6885 39.476 9.85063 38.4412L9.28809 34.819Z" fill="white"/>
<path d="M49.6084 34.819C49.6084 34.819 40.4391 36.4866 35.9387 36.314L38.3576 39.6486C38.3576 39.6486 44.2082 39.476 49.0458 38.4412L49.6084 34.819Z" fill="white"/>
<path d="M57.2029 26.2229C57.2029 26.2229 57.2029 26.2229 57.2029 26.2029H57.1838L51.9896 33.3029L49.4404 34.0829C49.0188 34.1629 40.2596 35.7229 35.9663 35.5629C35.9471 35.5629 35.9471 35.5829 35.9279 35.5829L22.9521 35.5629C22.933 35.5629 22.933 35.5629 22.933 35.5629C18.6396 35.7229 9.88045 34.1629 9.45879 34.0829L6.90962 33.3029L1.75379 26.2629C1.69629 26.8229 1.69629 27.1629 1.69629 27.1629L1.94546 29.0029L5.91296 34.4029C5.98962 34.5429 6.12379 34.6229 6.27712 34.6829L8.65379 35.4029L9.13295 38.5629C9.19045 38.8629 9.42045 39.1029 9.70795 39.1829C14.5571 40.2029 20.2688 40.3829 20.518 40.4029H20.5371C20.7671 40.4029 20.978 40.2829 21.1121 40.1029L23.3163 37.0629L35.583 37.0829L37.7871 40.1029C37.9213 40.2829 38.1321 40.4029 38.3621 40.4029C38.3621 40.4029 38.3621 40.4029 38.3813 40.4029C38.6113 40.3829 44.3421 40.2029 49.1913 39.1829C49.4788 39.1029 49.7088 38.8629 49.7471 38.5629L50.2454 35.4029L52.6221 34.6829C52.7754 34.6229 52.8904 34.5429 52.9863 34.4029L57.0496 28.8629L57.2988 27.1629C57.2988 26.8629 57.2604 26.5429 57.2029 26.2229ZM20.1921 38.8829C18.8888 38.8229 14.4038 38.5829 10.4746 37.8029L10.1488 35.7229C12.3721 36.1029 17.7388 36.9629 21.5146 37.0629L20.1921 38.8829ZM48.4246 37.8029C44.4954 38.5829 40.0105 38.8229 38.7071 38.8829L37.3846 37.0629C41.1604 36.9629 46.5271 36.1029 48.7313 35.7229L48.4246 37.8029Z" fill="#F43735"/>
<path d="M10.718 52.2552C10.718 52.2552 12.3253 56.8585 12.5074 61.8123L16.1232 65.5875V60.5795C16.1232 60.5795 12.9829 55.2315 10.718 52.2552Z" fill="#EFBC3F"/>
<path d="M38.8511 57.3048H20.1521L16.1233 60.5794V65.5874V65.5876H20.6533L23.2061 63.2716L33.4003 63.2724L35.9388 65.9068H42.3326L42.4069 60.2794L38.8511 57.3048Z" fill="#FFD24A"/>
<path d="M42.4069 60.2794L42.3325 65.9068L46.3096 63.0614C46.3096 63.0614 47.1301 56.7302 48.4101 52.3944L42.4069 60.2794Z" fill="#EFBC3F"/>
</svg>
